<?xml version="1.0" encoding="utf-8"?>
<!-- Generator: Adobe Illustrator 13.0.0, SVG Export Plug-In . SVG Version: 6.00 Build 14948)  -->
<!DOCTYPE svg PUBLIC "-//W3C//DTD SVG 1.1//EN" "http://www.w3.org/Graphics/SVG/1.1/DTD/svg11.dtd">
<svg version="1.1" id="Layer_1" xmlns="http://www.w3.org/2000/svg" xmlns:xlink="http://www.w3.org/1999/xlink" x="0px" y="0px"
	 width="250px" height="36px" viewBox="0 0 250 36" enable-background="new 0 0 250 36" xml:space="preserve">
<g>
	<polygon fill="#EE3524" points="62.613,31.251 62.613,28.141 61.435,28.141 61.435,27.723 64.281,27.723 64.281,28.141 
		63.098,28.141 63.098,31.251 	"/>
	<polygon fill="#EE3524" points="64.759,27.723 65.617,27.723 66.615,30.632 67.642,27.723 68.444,27.723 68.444,31.251 
		67.964,31.251 67.964,28.073 66.807,31.251 66.342,31.251 65.228,28.094 65.228,31.251 64.759,31.251 	"/>
	<path d="M245,24.205c0,1.396-1.135,2.501-2.486,2.501c-1.351,0-2.496-1.104-2.496-2.501c0-1.398,1.166-2.491,2.496-2.491
		C243.875,21.714,245,22.822,245,24.205 M240.316,24.205c0,1.243,0.99,2.213,2.197,2.213s2.187-0.984,2.187-2.213
		c0-1.176-0.954-2.197-2.187-2.197C241.307,22.008,240.316,22.993,240.316,24.205 M241.605,22.85h0.938c0.207,0,0.919,0,0.919,0.67
		c0,0.078,0,0.5-0.506,0.649l0.413,0.511l0.154,0.846h-0.383l-0.129-0.7l-0.582-0.517h-0.465v1.217h-0.361V22.85H241.605z
		 M241.967,23.993h0.577l0.531-0.407l-0.531-0.423h-0.577V23.993z"/>
	<path d="M78.115,9.752c3.771,0.165,7.54,0.315,11.313,0.454c5.021,0.191,6.813,1.599,6.215,4.101
		c-0.475,2.017-2.398,2.961-4.688,3.456l-0.01,0.036c2.313,0.134,4.319,1.146,3.711,3.719c-0.269,1.166-0.982,2.166-1.85,2.75
		c-1.271,0.877-2.429,1.264-6.009,1.397c-4.066,0.153-8.134,0.324-12.2,0.505C75.771,20.6,76.941,15.127,78.115,9.752
		 M82.192,23.023c0.691-0.017,1.377-0.041,2.065-0.058c2.414-0.062,3.412-0.67,3.706-1.955c0.291-1.284-0.449-1.855-2.857-1.846
		c-0.687,0.005-1.377,0.01-2.063,0.015C82.757,20.455,82.479,21.739,82.192,23.023 M83.665,16.37c0.688,0.005,1.38,0.01,2.065,0.016
		c2.017,0.021,2.816-0.64,3.048-1.661c0.248-1.083-0.115-1.687-2.298-1.738c-0.681-0.016-1.361-0.031-2.045-0.052
		C84.178,14.08,83.925,15.225,83.665,16.37"/>
	<path d="M116.755,22.74c-2.156,1.46-5.271,2.507-9.539,2.63c-8.101,0.269-10.282-3.043-9.23-7.489
		c0.687-2.867,2.461-4.89,4.652-6.014c1.821-0.938,4.019-1.48,8.286-1.361c8.104,0.231,10.285,3.321,9.232,7.375
		C119.612,19.977,118.408,21.626,116.755,22.74 M110.127,13.678c-2.298-0.042-4.304,1.264-5.028,4.203
		c-0.723,2.951,0.624,4.292,2.916,4.245c2.298-0.041,4.305-1.394,5.026-4.245C113.761,15.034,112.42,13.714,110.127,13.678"/>
	<path d="M123.488,11.15c2.252,0.041,4.5,0.077,6.749,0.108c0,2.759,0,5.519,0,8.278h0.072c1.765-2.765,3.528-5.499,5.293-8.206
		c2.6,0.03,5.198,0.057,7.787,0.077c0.289,2.697,0.567,5.395,0.853,8.093h0.065c1.465-2.703,2.92-5.385,4.385-8.057
		c2.084,0.01,4.179,0.016,6.271,0.016c-2.486,4.275-4.972,8.563-7.453,12.879c-2.935,0.016-5.863,0.036-8.789,0.067
		c-0.272-2.642-0.552-5.287-0.824-7.934h-0.063c-1.713,2.646-3.42,5.308-5.132,8.005c-2.95,0.037-5.908,0.088-8.861,0.14
		C123.726,20.13,123.604,15.643,123.488,11.15"/>
	<path d="M158.357,11.465c5.08,0,10.16-0.021,15.246-0.067c-0.252,0.913-0.5,1.826-0.748,2.734c-2.748,0.01-5.508,0.021-8.258,0.025
		c-0.246,0.893-0.494,1.784-0.736,2.677c2.619-0.005,5.234-0.005,7.854-0.01c-0.248,0.912-0.495,1.82-0.743,2.729
		c-2.619-0.006-5.24-0.011-7.85-0.011c-0.438,1.589-0.872,3.178-1.311,4.767c-2.326-0.006-4.652-0.006-6.979,0
		C156.006,20.027,157.182,15.751,158.357,11.465"/>
	<path d="M177.438,11.361c2.326-0.021,4.651-0.057,6.979-0.088c-0.887,3.343-1.773,6.675-2.672,9.981
		c2.554,0.016,5.097,0.036,7.648,0.057c-0.283,1.088-0.572,2.166-0.86,3.25c-4.874-0.082-9.743-0.146-14.617-0.187
		C175.085,20.059,176.256,15.72,177.438,11.361"/>
	<path d="M195.824,11.078c5.303-0.108,10.595-0.237,15.887-0.393c-0.248,1.017-0.495,2.032-0.743,3.044
		c-3.043,0.051-6.086,0.098-9.14,0.139c-0.206,0.856-0.424,1.707-0.641,2.559c2.849-0.011,5.705-0.031,8.553-0.047
		c-0.237,1.006-0.484,2.007-0.737,3.009c-2.853-0.021-5.71-0.037-8.558-0.048c-0.217,0.847-0.434,1.692-0.649,2.532
		c3.074,0.047,6.147,0.088,9.224,0.135c-0.248,1-0.49,1.991-0.737,2.981c-5.323-0.146-10.651-0.27-15.976-0.366
		C193.473,20.156,194.652,15.638,195.824,11.078"/>
	<path d="M221.377,17.695c-1.848-2.435-3.693-4.807-5.529-7.133c3.022-0.093,6.055-0.196,9.077-0.305
		c0.897,1.547,1.785,3.11,2.673,4.693c1.672-1.619,3.332-3.28,4.992-4.987c2.857-0.113,5.704-0.237,8.563-0.361
		c-3.032,2.821-6.055,5.514-9.084,8.083c1.931,2.702,3.863,5.478,5.793,8.34c-3.032-0.129-6.061-0.254-9.088-0.366
		c-0.959-1.79-1.918-3.554-2.873-5.286c-1.801,1.701-3.604,3.367-5.41,4.986c-2.795-0.092-5.596-0.186-8.396-0.262
		C215.188,22.72,218.282,20.266,221.377,17.695"/>
	<path fill="#EE3524" d="M37.329,4.749C19.478,4.749,5,10.604,5,17.829c0,4.127,4.717,7.805,12.085,10.203
		c3.692-0.476,8.5-1.166,11.969-1.944c3.734-0.847,8.129-2.038,11.265-3.931c0,0-1.119-1.16-5.777-2.673
		c-5.044-1.646-13.253-3.357-13.253-3.357s3.819-0.252,4.49-0.376c3.084-0.253,8.178-0.712,12.799-1.697
		c3.151-0.676,6.855-1.743,9.432-3.12c0,0-0.924-0.949-5.223-2.177c-4.681-1.341-10.774-2.466-10.774-2.466
		s7.004-0.149,15.311,1.342c9.313,1.666,11.853,3.559,11.853,3.559s-8.071,4.178-19.942,5.003
		c-3.271,0.228-8.516,0.186-12.418,0.108c3.861,0.222,9.233,0.717,14.419,1.836c10.236,2.212,12.844,4.539,12.844,4.539
		s-11.139,5.18-25.13,6.365c-2.393,0.201-5,0.237-7.458,0.196c4.681,1.067,10.084,1.671,15.84,1.671
		c17.859,0,32.329-5.854,32.329-13.081C69.658,10.604,55.188,4.749,37.329,4.749"/>
</g>
</svg>
